<svg width="64" height="64" viewBox="0 0 64 64" fill="none" xmlns="http://www.w3.org/2000/svg" role="img" aria-label="AKH Solutions">
  <defs>
    <linearGradient id="akGlyphGrad" x1="8" y1="12" x2="56" y2="52" gradientUnits="userSpaceOnUse">
      <stop stop-color="#28baf3"/>
      <stop offset="0.5" stop-color="#5778f8"/>
      <stop offset="1" stop-color="#7e2cfd"/>
    </linearGradient>
  </defs>
  <!-- dark rounded plate for contrast at tiny sizes -->
  <rect x="2" y="2" width="60" height="60" rx="14" fill="#07080d"/>
  <rect x="2.75" y="2.75" width="58.5" height="58.5" rx="13.25" fill="none" stroke="url(#akGlyphGrad)" stroke-width="1.5" opacity="0.6"/>
  <!-- left bracket -->
  <path d="M29 18 L13 18 Q7 18 7 25 L7 39 Q7 46 13 46 L29 46 L20 32 Z"
        stroke="url(#akGlyphGrad)" stroke-width="5" stroke-linejoin="round" fill="none"/>
  <!-- right bracket (mirrored) -->
  <path d="M35 18 L51 18 Q57 18 57 25 L57 39 Q57 46 51 46 L35 46 L44 32 Z"
        stroke="url(#akGlyphGrad)" stroke-width="5" stroke-linejoin="round" fill="none"/>
  <!-- inner converging chevrons -->
  <path d="M27 24 L32 32 L27 40" stroke="url(#akGlyphGrad)" stroke-width="4" stroke-linecap="round" stroke-linejoin="round"/>
  <path d="M37 24 L32 32 L37 40" stroke="url(#akGlyphGrad)" stroke-width="4" stroke-linecap="round" stroke-linejoin="round"/>
</svg>
